<svg width="468" height="409" xmlns="http://www.w3.org/2000/svg" xmlns:xlink="http://www.w3.org/1999/xlink" xml:space="preserve" overflow="hidden"><g transform="translate(-353 -201)"><path d="M365.051 186.188C344.341 186.188 321.9 169.007 309.181 143.437 301.124 127.322 297.994 110.008 300.258 94.6921 302.455 79.8423 309.581 68.7217 320.302 63.3944 324.763 61.1969 329.691 60.0649 334.885 60.0649 355.595 60.0649 378.036 77.2453 390.755 102.816 407.136 135.712 402.142 171.604 379.634 182.792 375.172 184.989 370.245 186.121 365.051 186.121Z" fill="#55515D" transform="matrix(1 0 0 1.00287 353 201.948)"/><path d="M334.885 63.3944 334.885 63.3944C354.396 63.3944 375.639 79.8423 387.825 104.281 403.407 135.579 399.079 169.474 378.169 179.795 374.174 181.793 369.779 182.792 365.051 182.792 345.54 182.792 324.297 166.344 312.111 141.905 304.386 126.389 301.323 109.742 303.521 95.1582 305.585 81.4405 312.044 71.1855 321.767 66.391 325.762 64.3933 330.157 63.3944 334.885 63.3944M334.885 56.7353C329.291 56.7353 323.831 57.934 318.77 60.3978 294.598 72.4508 288.937 110.274 306.118 144.835 319.769 172.27 343.608 189.451 364.984 189.451 370.578 189.451 376.038 188.252 381.099 185.788 405.271 173.735 410.932 135.912 393.751 101.351 380.1 73.9158 356.261 56.7353 334.885 56.7353L334.885 56.7353Z" transform="matrix(1 0 0 1.00287 353 201.948)"/><path d="M43.8833 405.937 316.906 172.071 280.347 172.071C241.791 172.071 209.894 172.736 184.656 174.068 159.418 175.4 140.307 177.598 127.255 180.727L127.255 180.394C99.4866 186.454 85.5692 198.84 85.5692 217.619L85.5692 231.736 71.9846 231.736 71.9846 164.879 438.633 164.879 158.686 399.811 220.815 399.811C257.64 399.811 289.004 398.945 314.841 397.281 340.612 395.616 361.788 392.819 378.236 388.957 394.684 385.095 406.737 380.167 414.394 374.107 422.052 368.114 425.848 360.855 425.848 352.398L425.848 336.15 440.298 336.15 440.298 405.937 43.8833 405.937Z" transform="matrix(1 0 0 1.00287 353 201.948)"/><path d="M64.3267 338.215 33.362 338.215 33.362 347.005 159.085 347.005 159.085 338.215 125.59 338.215 125.59 253.777 63.9272 294.398 64.3267 338.215Z" stroke="#000000" stroke-width="6.65908" stroke-miterlimit="10" fill="#ED5C9F" transform="matrix(1 0 0 1.00287 353 201.948)"/><path d="M358.525 12.1195 358.525 3.32954 232.801 3.32954 232.801 12.1195 265.231 12.1195 265.231 166.144 125.59 166.144 125.59 12.1195 159.085 12.1195 159.085 3.32954 33.362 3.32954 33.362 12.1195 61.7297 12.1195 63.7274 267.762 125.59 227.008 125.59 176.998 265.231 176.998 265.231 338.215 232.801 338.215 232.801 347.005 358.525 347.005 358.525 338.215 326.028 338.215 326.028 12.1195 358.525 12.1195Z" stroke="#000000" stroke-width="6.65908" stroke-miterlimit="10" fill="#ED5C9F" transform="matrix(1 0 0 1.00287 353 201.948)"/><path d="M4.59476 306.717 16.9141 325.363 63.9272 294.398 63.7274 267.762 4.59476 306.717Z" stroke="#000000" stroke-width="6.65908" stroke-miterlimit="10" fill="#ED5C9F" transform="matrix(1 0 0 1.00287 353 201.948)"/><path d="M186.188 213.956 173.869 195.244 125.59 227.008 125.59 253.777 186.188 213.956Z" stroke="#000000" stroke-width="6.65908" stroke-miterlimit="10" fill="#ED5C9F" transform="matrix(1 0 0 1.00287 353 201.948)"/><path d="M340.945 116.8C334.486 116.8 329.158 111.54 329.158 105.014 329.158 98.4878 334.419 93.2271 340.945 93.2271 347.471 93.2271 352.731 98.4878 352.731 105.014 352.731 111.54 347.471 116.8 340.945 116.8Z" fill="#FFFFFF" transform="matrix(1 0 0 1.00287 353 201.948)"/><path d="M340.945 96.5566C345.606 96.5566 349.402 100.352 349.402 105.014 349.402 109.675 345.606 113.471 340.945 113.471 336.283 113.471 332.488 109.675 332.488 105.014 332.488 100.352 336.283 96.5566 340.945 96.5566M340.945 89.8976C332.621 89.8976 325.829 96.6898 325.829 105.014 325.829 113.338 332.621 120.13 340.945 120.13 349.269 120.13 356.061 113.338 356.061 105.014 356.061 96.6898 349.269 89.8976 340.945 89.8976L340.945 89.8976Z" transform="matrix(1 0 0 1.00287 353 201.948)"/><path d="M376.837 139.441C376.837 145.951 371.56 151.228 365.051 151.228 358.541 151.228 353.264 145.951 353.264 139.441 353.264 132.932 358.541 127.655 365.051 127.655 371.56 127.655 376.837 132.932 376.837 139.441Z" fill="#FFFFFF" transform="matrix(1 0 0 1.00287 353 201.948)"/><path d="M365.051 130.984C369.712 130.984 373.508 134.78 373.508 139.441 373.508 144.102 369.712 147.898 365.051 147.898 360.389 147.898 356.594 144.102 356.594 139.441 356.594 134.78 360.389 130.984 365.051 130.984M365.051 124.325C356.727 124.325 349.935 131.117 349.935 139.441 349.935 147.765 356.727 154.557 365.051 154.557 373.375 154.557 380.167 147.765 380.167 139.441 380.167 131.117 373.375 124.325 365.051 124.325L365.051 124.325Z" transform="matrix(1 0 0 1.00287 353 201.948)"/><path d="M375.505 75.9135 418.923 43.8167" stroke="#000000" stroke-width="6.65908" stroke-miterlimit="10" fill="none" transform="matrix(1 0 0 1.00287 353 201.948)"/><path d="M375.505 75.9135 418.923 43.8167" transform="matrix(1 0 0 1.00287 353 201.948)"/><path d="M399.811 116.467 448.356 76.4462" stroke="#000000" stroke-width="6.65908" stroke-miterlimit="10" transform="matrix(1 0 0 1.00287 353 201.948)"/><path d="M432.041 38.889C432.041 43.4126 428.374 47.0797 423.85 47.0797 419.327 47.0797 415.66 43.4126 415.66 38.889 415.66 34.3654 419.327 30.6984 423.85 30.6984 428.374 30.6984 432.041 34.3654 432.041 38.889Z" stroke="#000000" stroke-width="6.65908" stroke-miterlimit="10" fill="#55515D" transform="matrix(1 0 0 1.00287 353 201.948)"/><path d="M464.67 76.4462C464.67 80.9698 461.003 84.6369 456.48 84.6369 451.956 84.6369 448.289 80.9698 448.289 76.4462 448.289 71.9226 451.956 68.2556 456.48 68.2556 461.003 68.2556 464.67 71.9226 464.67 76.4462Z" stroke="#000000" stroke-width="6.65908" stroke-miterlimit="10" fill="#55515D" transform="matrix(1 0 0 1.00287 353 201.948)"/><path d="M343.808 107.877C343.808 109.458 342.526 110.74 340.945 110.74 339.363 110.74 338.081 109.458 338.081 107.877 338.081 106.296 339.363 105.014 340.945 105.014 342.526 105.014 343.808 106.296 343.808 107.877Z" stroke="#000000" stroke-width="6.65908" stroke-miterlimit="10" transform="matrix(1 0 0 1.00287 353 201.948)"/><path d="M367.914 136.578C367.914 138.159 366.632 139.441 365.051 139.441 363.469 139.441 362.187 138.159 362.187 136.578 362.187 134.996 363.469 133.714 365.051 133.714 366.632 133.714 367.914 134.996 367.914 136.578Z" stroke="#000000" stroke-width="6.65908" stroke-miterlimit="10" transform="matrix(1 0 0 1.00287 353 201.948)"/></g></svg>